<svg width="24" height="24" viewBox="0 0 24 24" fill="none" xmlns="http://www.w3.org/2000/svg">
<path fill-rule="evenodd" clip-rule="evenodd" d="M12 24C18.6274 24 24 18.6274 24 12C24 5.37258 18.6274 0 12 0C5.37258 0 0 5.37258 0 12C0 18.6274 5.37258 24 12 24ZM12.5596 8.90097L13.8217 8.90063L15.5823 8.902C15.6127 8.90201 15.6446 8.90236 15.6777 8.90272C16.177 8.90818 16.9561 8.9167 17.35 7.81621L18 6L13.8417 6.00068C11.5909 6.00086 9.83546 6.77901 8.56815 8.06721C6.38399 10.2877 5.63145 13.7541 6.16448 15.4161C6.65704 16.9519 8.02503 17.9633 10.1449 17.9838L11.802 18L13.8393 17.9997L14.3411 16.5455C14.7052 15.4897 13.8828 15.0982 12.775 15.0982L10.8541 15.0985C7.86458 15.0995 10.0312 8.90217 12.5596 8.90097Z" fill="black"/>
</svg>
